<?xml version="1.0" encoding="utf-8"?>
<!-- Svg Vector Icons : http://www.onlinewebfonts.com/icon -->
<!DOCTYPE svg PUBLIC "-//W3C//DTD SVG 1.1//EN" "http://www.w3.org/Graphics/SVG/1.1/DTD/svg11.dtd">
<svg version="1.1" xmlns="http://www.w3.org/2000/svg" xmlns:xlink="http://www.w3.org/1999/xlink" x="0px" y="0px" viewBox="0 0 1000 1000" enable-background="new 0 0 1000 1000" xml:space="preserve">
<metadata> Svg Vector Icons : http://www.onlinewebfonts.com/icon </metadata>
<g><g><path d="M500,204.7C229.4,204.7,10,336.9,10,500s219.4,295.3,490,295.3S990,663.1,990,500S770.6,204.7,500,204.7z M777.8,689.2c0,1.6,49-59.2,9.8-100C740.5,535.8,659,615.7,659,615.7c-64.4-127.1-161.4,79-161.4,79s-84.1-194.3-156.3-76.6c1.6,0-59.9-70.2-121.1-37.2c-43.9,43.9,0,102.8,0,102.8c-229.1-80.1-244-313.9,74.2-409.2c-89.9,112.6,165.6,267.6,146.7-8.6l54.2,47.5c0,0,54.6-45.1,54.6-48.3c-6.3,276.2,235.4,114.2,153.8,12.2C990.8,360.4,1039.9,559,777.8,689.2z"/></g></g>
</svg>